<svg width="256" height="256" viewBox="0 0 256 256" xmlns="http://www.w3.org/2000/svg" role="img">
<title>Bloom icon</title>
<desc>A solid orange rounded square with a centered white six-petal flower and a soft center.</desc>
<rect width="256" height="256" rx="60" fill="#f97316"/>
<g transform="translate(128,128)">
<g fill="#ffffff">
<path d="M0 -78 C 22 -78, 33 -58, 26 -34 C 22 -20, 11 -12, 0 -12 C -11 -12, -22 -20, -26 -34 C -33 -58, -22 -78, 0 -78 Z"/>
<path d="M0 -78 C 22 -78, 33 -58, 26 -34 C 22 -20, 11 -12, 0 -12 C -11 -12, -22 -20, -26 -34 C -33 -58, -22 -78, 0 -78 Z" transform="rotate(60)"/>
<path d="M0 -78 C 22 -78, 33 -58, 26 -34 C 22 -20, 11 -12, 0 -12 C -11 -12, -22 -20, -26 -34 C -33 -58, -22 -78, 0 -78 Z" transform="rotate(120)"/>
<path d="M0 -78 C 22 -78, 33 -58, 26 -34 C 22 -20, 11 -12, 0 -12 C -11 -12, -22 -20, -26 -34 C -33 -58, -22 -78, 0 -78 Z" transform="rotate(180)"/>
<path d="M0 -78 C 22 -78, 33 -58, 26 -34 C 22 -20, 11 -12, 0 -12 C -11 -12, -22 -20, -26 -34 C -33 -58, -22 -78, 0 -78 Z" transform="rotate(240)"/>
<path d="M0 -78 C 22 -78, 33 -58, 26 -34 C 22 -20, 11 -12, 0 -12 C -11 -12, -22 -20, -26 -34 C -33 -58, -22 -78, 0 -78 Z" transform="rotate(300)"/>
</g>
<circle r="22" fill="#fdba74"/>
<circle r="11" fill="#f97316"/>
</g>
</svg>
